<?xml version="1.0" encoding="UTF-8"?>
<svg width="37.56px" height="35px" viewBox="0 0 37.5609756 35" version="1.1" xmlns="http://www.w3.org/2000/svg">
    <title>Neptune Internet Icon</title>
    <path d="M27.3269188,0.671616379 C29.0311212,2.58194244 26.6991711,7.34775006 24.3318549,7.40334744 C19.4535478,7.20097297 16.9116117,0.104523079 11.7680592,0 C11.7415346,0 11.7127997,0.0022238953 11.6862751,0.0022238953 C4.83188906,2.82212313 0,9.5938843 0,17.5042799 C0,24.6496555 3.94110622,30.8676667 9.75661404,34.0789715 C8.1098815,32.1508543 9.09350027,27.6341229 11.7990045,27.6074362 C14.5840823,27.7853478 17.0663383,30.7208896 19.2104061,32.2664968 C21.0140756,33.5674756 23.1890888,34.9907686 25.4967247,35 C25.6470305,35.0018881 25.7951259,34.9929925 25.9432213,34.9752013 C32.7622414,32.1419587 37.5609756,25.3879887 37.5609756,17.5042799 C37.5631851,10.1632015 33.4032513,3.80286095 27.3269188,0.671616379 Z" fill="#FFFFFF" fill-rule="nonzero"></path>
</svg>
