<svg xmlns="http://www.w3.org/2000/svg" width="35" height="35" viewBox="0 0 35 35">
  <g fill="#FFFFFF" fill-rule="evenodd" transform="translate(1.6 2)">
    <path d="M29.7480301,11.1146693 L29.7480301,6.88475934 C29.7476762,6.78174004 29.6770025,6.69228655 29.5769585,6.66770031 C27.9537719,6.28926886 26.3281852,6.11273502 24.7001983,6.13809881 C22.1724247,6.17748113 18.7942543,8.30881777 19.0106198,11.4713407 C19.1548634,13.5796894 20.4030777,15.2828918 22.7552627,16.5809481 C25.72389,18.2558703 27.0297953,20.0169814 26.6729786,21.8642812 C26.1377536,24.635231 23.1591385,25.4069369 21.3304575,26.094124 C23.8547983,26.2106562 25.5774272,26.082273 26.4983442,25.7089742 C28.6115038,24.8523933 30.1050229,23.0505913 30.4215682,21.5554247 C31.2955704,17.4271728 28.0342907,15.4695993 26.4983442,14.4236566 C24.9623977,13.3777139 22.4089239,11.6359551 22.4089239,10.192479 C22.4089239,8.74900291 23.0039914,7.63886422 24.9515131,7.37553361 C26.9975568,7.09888152 28.9225199,8.39645332 29.2426041,10.7136309 C29.2840265,11.0134991 29.4525019,11.1471786 29.7480301,11.1146693 Z"/>
    <path d="M14.8341246,7.01336245 C14.8911045,7.04982815 14.9300992,7.07512493 14.9511088,7.0892528 C16.7767345,8.31689255 17.6318566,9.77437013 17.5164749,11.4616855 C17.3927036,13.2716878 16.2954544,15.0061855 14.2247274,16.6651786 C14.7626685,16.8189118 16.5870817,21.3168739 18.0835531,22.8070879 C19.0812007,23.8005639 20.7216872,24.1840613 23.0050124,23.9575802 C21.0634318,25.2341662 19.5337002,25.8724591 18.4158175,25.8724591 C16.7389935,25.8724591 15.5127824,24.7474331 14.4340082,23.3427891 C13.355234,21.9381451 11.4233557,17.6531184 10.0420459,16.3795174 C11.3703757,16.3827438 12.2835355,16.1089379 12.7815255,15.5580997 C13.4131667,14.8594267 13.9105128,13.7517094 13.7584906,12.1269791 C13.6832995,11.3233773 13.2234966,10.3843668 12.5091627,9.39250574 C12.3988577,9.23934593 12.4355238,9.09821475 12.6191608,8.9691122 C13.1952375,8.58736151 13.7727087,7.96729381 14.3515743,7.10890908 L14.3527988,7.10974593 C14.4605646,6.95205463 14.6742792,6.9088092 14.8348748,7.01219721 Z"/>
    <path d="M6.60130263,0 C7.18198499,0 7.82352764,0.309339817 7.8720908,1.00814922 C7.90446623,1.47402216 7.76751758,1.80453401 7.46124482,1.99968476 L7.71267063,5.52750866 L11.5669834,5.63593611 C11.648434,5.63822744 11.7265783,5.66865214 11.7881353,5.72203936 L12.9937212,6.76762264 C13.1408658,6.89523856 13.156697,7.11797598 13.0290811,7.2651206 C13.0245618,7.27033144 13.0198906,7.27540858 13.0150736,7.28034546 L12.2802961,8.03340344 C12.1514074,8.16549875 11.9424727,8.17588356 11.8011204,8.05722021 L11.1477955,7.50876282 L11.1477955,7.50876282 L8.9179572,7.50876282 C8.48690415,7.70352326 8.23549817,7.96521649 8.16373924,8.29384249 C8.09198032,8.6224685 8.0882983,11.4810402 8.1526932,16.8695576 C8.1526932,18.8928889 8.35333245,21.3024239 8.75461094,24.0981628 L6.74438177,27.4186337 L4.41934784,24.0981628 C4.88533366,21.1121174 5.11832658,18.6248862 5.11832658,16.636469 L4.07734769,15.703294 L5.12937262,14.6247972 C5.16512044,10.6597286 5.16512044,8.54941039 5.12937262,8.29384249 C5.0757509,7.91049065 4.82739633,7.74594701 4.43039388,7.50876282 L2.09724824,7.50876282 L1.43041371,8.05809496 C1.28723575,8.17604364 1.07715968,8.16291193 0.949784677,8.02805116 L0.241673714,7.27832487 C0.108122631,7.13692506 0.114259745,6.91409598 0.255391277,6.78026143 L1.36039635,5.73238883 C1.4234803,5.67256653 1.50643769,5.63815335 1.59334306,5.63575564 L5.51677331,5.52750866 L5.51677331,5.52750866 L5.72463497,1.99968476 C5.46230574,1.75689602 5.33114112,1.42638418 5.33114112,1.00814922 C5.33114112,0.380796796 6.02062028,0 6.60130263,0 Z"/>
  </g>
</svg>
